<?xml version="1.0" encoding="UTF-8" standalone="no"?>
<svg
   xmlns:dc="http://purl.org/dc/elements/1.1/"
   xmlns:cc="http://creativecommons.org/ns#"
   xmlns:rdf="http://www.w3.org/1999/02/22-rdf-syntax-ns#"
   xmlns:svg="http://www.w3.org/2000/svg"
   xmlns="http://www.w3.org/2000/svg"
   xmlns:sodipodi="http://sodipodi.sourceforge.net/DTD/sodipodi-0.dtd"
   xmlns:inkscape="http://www.inkscape.org/namespaces/inkscape"
   version="1.1"
   id="svg3664"
   width="522.89362"
   height="522.89362"
   viewBox="0 0 522.89362 522.89362"
   sodipodi:docname="candidate.svg"
   inkscape:version="1.0.1 (3bc2e813f5, 2020-09-07)"
   inkscape:export-filename="C:\Users\Behnam\Dropbox (Politecnico Di Torino Studenti)\Code\js\Node\Se2project\PULSeBS\public\imgs\candidate.png"
   inkscape:export-xdpi="96"
   inkscape:export-ydpi="96">
  <metadata
     id="metadata3670">
    <rdf:RDF>
      <cc:Work
         rdf:about="">
        <dc:format>image/svg+xml</dc:format>
        <dc:type
           rdf:resource="http://purl.org/dc/dcmitype/StillImage" />
        <dc:title></dc:title>
      </cc:Work>
    </rdf:RDF>
  </metadata>
  <defs
     id="defs3668" />
  <sodipodi:namedview
     pagecolor="#ffffff"
     bordercolor="#666666"
     borderopacity="1"
     objecttolerance="10"
     gridtolerance="10"
     guidetolerance="10"
     inkscape:pageopacity="0"
     inkscape:pageshadow="2"
     inkscape:window-width="1920"
     inkscape:window-height="1001"
     id="namedview3666"
     showgrid="false"
     inkscape:zoom="1.1224054"
     inkscape:cx="187.33662"
     inkscape:cy="340.92387"
     inkscape:window-x="-9"
     inkscape:window-y="-9"
     inkscape:window-maximized="1"
     inkscape:current-layer="g3672"
     inkscape:pagecheckerboard="true" />
  <g
     inkscape:groupmode="layer"
     inkscape:label="Image"
     id="g3672">
    <g
       id="g3815"
       transform="translate(4.155546,7.719325)"
       style="fill:#ffffff;stroke:#000000"
       inkscape:export-filename="C:\Users\Behnam\Dropbox (Politecnico Di Torino Studenti)\Code\js\Node\Se2project\PULSeBS\public\imgs\candidate.png"
       inkscape:export-xdpi="96"
       inkscape:export-ydpi="96">
      <path
         d="M 256,11 C 120.9,11 11,120.9 11,256 11,391.1 120.9,501 256,501 391.1,501 501,391.1 501,256 501,120.9 391.1,11 256,11 Z m 20.4,448.1 v -10.8 c 0,-11.3 -9.1,-20.4 -20.4,-20.4 -11.3,0 -20.4,9.1 -20.4,20.4 v 10.8 C 141.4,449.7 60.3,351.1 52.9,276.4 h 10.8 c 11.3,0 20.4,-9.1 20.4,-20.4 0,-11.3 -9.1,-20.4 -20.4,-20.4 H 52.9 C 62.5,139.3 139.3,62.5 235.6,52.9 v 10.8 c 0,11.3 9.1,20.4 20.4,20.4 11.3,0 20.4,-9.1 20.4,-20.4 V 52.9 c 96.3,9.6 173.1,86.4 182.7,182.7 h -10.8 c -11.3,0 -20.4,9.1 -20.4,20.4 0,11.3 9.1,20.4 20.4,20.4 h 10.8 c -9.6,96.3 -86.4,173.1 -182.7,182.7 z"
         id="path3811"
         style="fill:#ffffff;stroke:#000000" />
      <path
         d="m 347.9,235.6 h -71.5 v -111 c 0,-11.3 -9.1,-20.4 -20.4,-20.4 -11.3,0 -20.4,9.1 -20.4,20.4 V 256 c 0,11.3 9.1,20.4 20.4,20.4 h 91.9 c 11.3,0 20.4,-9.1 20.4,-20.4 0,-11.3 -9.2,-20.4 -20.4,-20.4 z"
         id="path3813"
         style="fill:#ffffff;stroke:#000000" />
    </g>
  </g>
</svg>
