<?xml version="1.0" encoding="UTF-8" standalone="no"?>
<svg
   xmlns:dc="http://purl.org/dc/elements/1.1/"
   xmlns:cc="http://creativecommons.org/ns#"
   xmlns:rdf="http://www.w3.org/1999/02/22-rdf-syntax-ns#"
   xmlns:svg="http://www.w3.org/2000/svg"
   xmlns="http://www.w3.org/2000/svg"
   width="210mm"
   height="297mm"
   viewBox="0 0 210 297"
   version="1.1"
   id="svg3855">
  <defs
     id="defs3849" />
  <metadata
     id="metadata3852">
    <rdf:RDF>
      <cc:Work
         rdf:about="">
        <dc:format>image/svg+xml</dc:format>
        <dc:type
           rdf:resource="http://purl.org/dc/dcmitype/StillImage" />
        <dc:title></dc:title>
      </cc:Work>
    </rdf:RDF>
  </metadata>
  <g
     id="layer1">
    <g
       id="g3089"
       transform="translate(23.699389,-34.891567)"
       style="opacity:1">
      <path
         id="path23-6"
         style="fill:#ffffff;fill-opacity:1;stroke:#000000;stroke-width:0.159534"
         d="M 18.58506,74.449086 A 13.008979,14.078239 7.4291341 0 0 3.864929,86.727051 13.008979,14.078239 7.4291341 0 0 14.944448,102.36911 13.008979,14.078239 7.4291341 0 0 26.469707,97.57504 21.662262,19.648245 7.4291341 0 1 21.353729,82.279591 21.662262,19.648245 7.4291341 0 1 23.33202,76.124411 13.008979,14.078239 7.4291341 0 0 18.58506,74.449086 Z" />
      <path
         id="path25-8"
         style="fill:#ffffff;fill-opacity:1;stroke:#000000;stroke-width:0.173558px;stroke-linecap:butt;stroke-linejoin:miter;stroke-opacity:1"
         d="M 4.2674397,99.341736 C -5.3628662,102.78877 -9.4598876,121.3316 -9.4598876,121.3316 c 0,0 6.1588862,2.27654 16.3225178,3.12746 2.0242556,-5.45893 5.9569338,-14.15545 12.1046878,-20.06131 -4.081486,1.61807 -9.4495597,1.55661 -14.6998783,-5.056014 z m 21.6761963,0.0212 c 0,0 -0.148275,0.172567 -0.381889,0.422707 0.226722,-0.10444 0.455412,-0.20437 0.686263,-0.30024 -0.179233,-0.0747 -0.304374,-0.122467 -0.304374,-0.122467 z" />
      <path
         id="path23-8-6"
         style="fill:#ffffff;stroke:#000000;stroke-width:0.243204"
         d="M 67.019404,83.910705 A 21.662262,19.648245 0 0 1 45.357142,103.55896 21.662262,19.648245 0 0 1 23.694881,83.910705 21.662262,19.648245 0 0 1 45.357142,64.262465 21.662262,19.648245 0 0 1 67.019404,83.910705 Z" />
      <path
         style="fill:#ffffff;stroke:#000000;stroke-width:0.252478px;stroke-linecap:butt;stroke-linejoin:miter;stroke-opacity:1"
         d="m 7.25101,128.47181 c 0,0 6.459343,-24.88886 21.642835,-29.515584 16.70447,17.910924 34.175568,0.0285 34.175568,0.0285 0,0 17.714073,5.140804 22.775235,29.302654 -45.220735,10.71193 -78.593638,0.18443 -78.593638,0.18443 z"
         id="path25-0-6" />
      <path
         id="path23-6-4"
         style="fill:#ffffff;fill-opacity:1;stroke:#000000;stroke-width:0.159534"
         d="M 71.41413,72.59532 A 14.078239,13.008979 79.5589 0 1 86.759066,84.082862 14.078239,13.008979 79.5589 0 1 76.516757,100.28548 14.078239,13.008979 79.5589 0 1 64.755518,96.103625 19.648245,21.662262 79.5589 0 0 69.060736,80.560488 19.648245,21.662262 79.5589 0 0 66.761756,74.517759 14.078239,13.008979 79.5589 0 1 71.41413,72.59532 Z" />
      <path
         id="path25-8-0"
         style="fill:#ffffff;fill-opacity:1;stroke:#000000;stroke-width:0.173558px;stroke-linecap:butt;stroke-linejoin:miter;stroke-opacity:1"
         d="m 87.248329,96.816835 c 9.739563,3.124995 14.450721,21.521385 14.450721,21.521385 0,0 -6.079778,2.48002 -16.209501,3.66834 -2.204608,-5.38862 -6.424211,-13.9496 -12.764897,-19.64783 4.133021,1.4815 9.496084,1.24162 14.523677,-5.541895 z m -21.66351,0.741771 c 0,0 0.15393,0.167545 0.39573,0.409781 -0.23007,-0.09685 -0.461955,-0.189117 -0.695864,-0.277261 0.176648,-0.08061 0.300134,-0.13252 0.300134,-0.13252 z" />
    </g>
    <path
       id="path45-6"
       style="opacity:1;fill:#ff0000;stroke-width:0.283832"
       d="m 21.202292,31.321183 a 61.089416,58.821561 0 0 0 10.930378,82.456937 61.089416,58.821561 0 0 0 85.70606,-10.47235 61.089416,58.821561 0 0 0 -10.87611,-82.524373 61.089416,58.821561 0 0 0 -85.706071,10.472356 61.089416,58.821561 0 0 0 -0.05426,0.0674 z m 8.405662,6.30508 a 50.315532,48.333806 4.9013549 0 1 0.07149,-0.089 50.315532,48.333806 4.9013549 0 1 65.699348,-11.573416 L 34.451498,101.68279 A 50.315532,48.333806 4.9013549 0 1 29.607949,37.626233 Z M 43.716368,108.5946 104.64365,32.875743 a 50.315532,48.333806 4.9013549 0 1 4.77216,64.14638 50.315532,48.333806 4.9013549 0 1 -65.699442,11.572477 z" />
  </g>
</svg>
